<svg width="150" height="151" viewBox="0 0 150 151" fill="none" xmlns="http://www.w3.org/2000/svg">
<path d="M124.007 12.5L134.389 2.9483C135.573 1.85941 137.405 1.89755 138.542 3.03477L146.886 11.3787C148.057 12.5503 148.057 14.4497 146.886 15.6213L137.507 25M124.007 12.5C115.804 8.953 110.578 8.86141 100.007 12.5C89.4357 16.1386 14.007 98.9388 14.007 98.9388M124.007 12.5L137.507 25M137.507 25C142.173 34.0216 141.986 38.9102 139.507 47.5C137.028 56.0898 52.374 135.5 52.374 135.5M52.374 135.5L39.4626 148.54C39.1623 148.843 38.7982 149.09 38.3877 149.207C32.1851 150.969 28.8118 142.597 27.5692 138.566C27.1909 137.339 26.1507 136.4 24.9072 136.08C21.7542 135.269 15.9952 133.03 14.3966 127.296C14.0287 125.976 13.0611 124.841 11.7246 124.54C5.12698 123.053 2.10696 120.663 2.00279 112.211C1.99325 111.437 2.31184 110.694 2.85785 110.145L14.007 98.9388M52.374 135.5L14.007 98.9388" stroke="#FFCA28" stroke-width="3"/>
</svg>
