<svg width="160" height="160" viewBox="0 0 160 160" fill="none" xmlns="http://www.w3.org/2000/svg">
<path d="M51.5644 34C42.461 34 35.1309 41.33 35.1309 50.4334V107.566C35.1309 116.67 42.461 124 51.5644 124H82.5301V88.8156H73.2263V76.1481H82.5301V65.3256C82.5301 56.8229 88.0272 49.0159 100.69 49.0159C105.817 49.0159 109.609 49.5081 109.609 49.5081L109.311 61.3375C109.311 61.3375 105.444 61.301 101.225 61.301C96.6582 61.301 95.9259 63.405 95.9259 66.8979V76.1482H109.673L109.074 88.8157H95.9259V124H108.697C117.801 124 125.131 116.67 125.131 107.567V50.4335C125.131 41.3301 117.801 34.0001 108.697 34.0001H51.5643L51.5644 34Z" fill="#88FFCD"/>
<circle cx="80" cy="80" r="78" stroke="#88FFCD" stroke-width="4"/>
</svg>
