<svg width="1238" height="1255" viewBox="0 0 1238 1255" fill="none" xmlns="http://www.w3.org/2000/svg">
<path fill-rule="evenodd" clip-rule="evenodd" d="M592.55 284.102C679.328 285.331 764.469 225.94 845.178 257.846C934.265 293.065 1016.19 367.467 1038.86 460.542C1061.18 552.134 1004.62 642.151 958.883 724.587C920.734 793.354 867.625 850.945 800.01 891.102C737.242 928.38 665.549 942.966 592.55 942.155C520.259 941.351 453.37 918.267 388.414 886.527C309.9 848.162 208.531 822.167 178.817 739.988C149.074 657.727 219.581 576.346 246.125 492.998C272.882 408.981 259.16 296.147 334.669 250.615C410.762 204.73 503.703 282.843 592.55 284.102Z" fill="url(#paint0_linear)"/>
<path fill-rule="evenodd" clip-rule="evenodd" d="M939.245 383.858C977.088 457.478 975.774 539.318 987.664 621.246C1001.67 717.775 1070.56 825.244 1014.94 905.409C959.296 985.588 835.872 966.936 739.092 979.455C662.946 989.305 587.146 995.218 514.598 970.13C444.376 945.846 396.939 888.351 339.475 841.261C259.879 776.035 139.303 741.473 113.873 641.751C87.9859 540.238 144.28 429.718 214.741 352.133C280.876 279.312 386.395 270.812 479.521 239.133C571.493 207.848 662.246 139.231 754.883 168.394C847.323 197.495 894.946 297.68 939.245 383.858Z" fill="url(#paint1_linear)"/>
<path fill-rule="evenodd" clip-rule="evenodd" d="M307.898 358.62C301.375 350.964 296.96 341.581 297.698 331.066C299.824 300.772 341.994 307.437 350.197 322.727C358.4 338.016 357.425 376.8 346.824 379.533C342.596 380.623 333.589 377.953 324.422 372.428L330.176 413.134H296.202L307.898 358.62Z" fill="#B28B67"/>
<path fill-rule="evenodd" clip-rule="evenodd" d="M282.886 320.982C281.789 319.895 281.19 318.343 280.673 316.869C280.135 315.338 279.612 313.791 279.255 312.198C278.542 309.014 278.535 305.352 280.807 302.88C282.628 300.897 285.362 300.008 287.884 299.815C289.565 299.686 291.291 299.921 292.902 300.451C294.5 300.976 295.878 302.023 297.428 302.673C297.487 299.242 298.075 295.652 299.815 292.722C301.49 289.903 304.161 288.321 307.203 287.903C310.324 287.473 313.407 288.204 316.201 289.715C316.901 290.094 317.594 290.49 318.258 290.939C318.813 291.315 319.39 291.767 320.042 291.92C320.769 292.091 321.129 291.671 321.601 291.141C322.155 290.52 322.778 289.972 323.438 289.487C326.357 287.342 330.186 286.46 333.568 287.746C335.125 288.338 336.64 289.344 337.697 290.731C338.639 291.967 339.312 293.927 340.612 294.788C341.164 295.154 341.553 294.669 342.056 294.311C342.81 293.774 343.53 293.18 344.294 292.657C345.367 291.922 346.528 291.372 347.772 291.084C349.593 290.663 352.11 290.762 352.63 293.147C352.826 294.043 352.676 295.001 352.613 295.904C352.526 297.143 352.436 298.382 352.328 299.62C352.246 300.559 352.143 301.467 351.966 302.389C351.871 302.881 351.575 303.798 351.786 304.291C352.05 304.907 353.266 304.557 353.786 304.578C354.812 304.62 355.843 304.8 356.793 305.239C357.528 305.579 358.302 306.079 358.612 306.922C358.803 307.44 358.753 307.972 358.662 308.505C358.554 309.145 358.678 309.484 358.759 310.129C360.138 309.45 364.915 307.942 365.517 310.413C365.717 311.235 365.261 312.165 364.913 312.859C364.303 314.076 363.504 315.188 362.686 316.249C360.981 318.462 358.945 320.371 356.755 322.003C359.321 323.144 359.991 326.509 357.769 328.514C356.788 329.399 355.469 329.596 354.232 329.54C353.779 329.519 353.126 329.345 352.77 329.424C352.578 329.466 352.373 329.629 352.107 329.647C350.361 329.766 348.389 329.346 346.682 328.958C343.64 328.268 340.761 326.826 338.409 324.632C337.806 324.069 337.307 323.744 336.495 323.753C335.784 323.76 335.086 323.955 334.375 323.973C332.494 324.021 330.798 323.102 329.052 322.49C328.945 324.849 328.273 327.448 327.307 329.57C326.52 331.302 324.877 331.553 323.262 331.705C318.097 332.191 312.914 331.649 307.742 331.656C312.748 332.787 317.921 333.254 322.883 334.585C325.126 335.187 323.413 336.698 322.454 337.746C320.875 339.472 319.701 341.61 318.887 343.862C316.438 340.67 312.109 338.567 308.275 339.547C304.037 340.631 301.054 346.361 303.763 350.48C305.336 352.871 308.177 353.795 310.541 354.822C308.697 356.739 308.251 359.57 307.141 361.956C306.594 363.132 305.825 364.462 304.601 364.871C304.148 365.023 303.617 365.036 303.26 365.405C302.817 365.862 302.712 366.373 302.147 366.766C299.891 368.334 296.368 368.213 294.369 366.167C292.561 364.317 293.032 361.388 294.542 359.512C292.138 358.51 287.76 357.222 288.715 353.477C283.507 353.132 270.863 344.685 277.852 338.514C274.016 336.346 270.492 331.047 272.956 326.377C274.853 322.781 279.266 321.173 282.886 320.982Z" fill="#191847"/>
<path fill-rule="evenodd" clip-rule="evenodd" d="M283.449 542.183L354.432 730.009L404.186 868.446H432.556L364.164 542.183L283.449 542.183Z" fill="#1F28CF"/>
<path fill-rule="evenodd" clip-rule="evenodd" d="M265.906 542.183C265.134 606.63 265.692 693.397 263.894 697.414C262.696 700.093 225.417 730.607 152.058 788.958L166.681 813.823C253.775 757.658 299.548 725.834 304.001 718.351C310.68 707.127 344.235 603.838 361.693 542.183H265.906Z" fill="#2B44FF"/>
<path fill-rule="evenodd" clip-rule="evenodd" d="M126.332 805.691L151.03 786.894L170.958 810.643C172.491 828.547 178.419 848.626 188.742 870.881L184.218 874.676L148.158 831.702L138.084 815.102L135.822 817L126.332 805.691Z" fill="#191847"/>
<path fill-rule="evenodd" clip-rule="evenodd" d="M401.553 895.02L403.03 864.017H434.032C448.733 874.351 467.924 882.717 491.608 889.114V895.02H435.508L416.316 892.067V895.02H401.553Z" fill="#191847"/>
<path fill-rule="evenodd" clip-rule="evenodd" d="M408.582 523.509L455.674 558.089C468.446 561.535 479.117 565.823 487.686 570.953C489.71 572.797 492.157 576.532 483.762 575.887C475.367 575.241 466.508 574.94 465.349 577.803C464.191 580.667 469.271 584.091 466.93 587.954C465.369 590.53 457.994 584.072 444.805 568.579L398.172 549.242L408.582 523.509ZM227.775 524.702L258.626 524.823C239.577 586.317 229.293 618.945 227.775 622.707C224.359 631.173 231.588 644.067 234.679 650.996C224.61 655.501 225.683 638.816 212.982 644.725C201.389 650.118 192.57 659.891 179.176 651.626C177.53 650.61 175.725 646.785 180.085 643.795C190.947 636.347 206.601 623.311 208.716 619.021C211.6 613.169 217.953 581.73 227.775 524.702Z" fill="#B28B67"/>
<path fill-rule="evenodd" clip-rule="evenodd" d="M315.448 395.248L328.214 393.059C375.578 433.975 395.033 512.58 453.09 554.22L439.116 571.542C338.397 559.071 313.433 463.192 315.448 395.248Z" fill="#E87613"/>
<path fill-rule="evenodd" clip-rule="evenodd" d="M259.799 555.675C310.985 555.675 348.636 555.675 372.753 555.675C377.914 555.675 376.942 548.222 376.196 544.461C367.585 501.057 333.97 454.27 333.97 392.486L301.389 387.376C274.44 430.718 265.121 484.081 259.799 555.675Z" fill="#DDE3E9"/>
<path fill-rule="evenodd" clip-rule="evenodd" d="M260.706 429.98C255.974 428.619 252.227 425.447 249.465 420.462C237.556 398.974 241.857 387.144 254.583 383.255C267.31 379.366 278.659 387.376 298.936 387.376C300.039 387.376 301.049 387.446 301.966 387.584L312.166 388.166C341.429 487.345 349.5 553.515 336.378 586.677H247.474C242.207 598.96 237.166 609.294 232.353 617.68H208.128C205.848 543.964 223.374 481.397 260.706 429.98Z" fill="#FF9B21"/>
<path fill-rule="evenodd" clip-rule="evenodd" d="M266.834 535.741C269.63 559.135 274.174 576.114 280.467 586.677H247.474C253.619 572.35 260.072 555.371 266.834 535.741H266.834Z" fill="black" fill-opacity="0.1"/>
<rect x="466.072" y="660.949" width="600.206" height="28.3116" rx="5" fill="#F7A623"/>
<path d="M667.084 683.598C669.682 674.07 675.085 672.103 683.363 670.15M663.545 674.397C665.39 670.247 666.939 668.701 670.623 667.319M681.948 685.013C681.073 679.937 681.835 678.222 685.487 677.228" stroke="#544241" stroke-opacity="0.25"/>
<path d="M844.74 684.306C847.337 674.777 852.74 672.81 861.019 670.858M841.201 675.104C843.046 670.955 844.595 669.409 848.279 668.026M859.603 685.721C858.729 680.645 859.491 678.93 863.142 677.936" stroke="#544241" stroke-opacity="0.25"/>
<path d="M1055.66 685.013C1040.92 677.817 1036.07 675.009 1041.51 665.903M1059.91 681.475C1055.66 676.52 1056.05 671.602 1062.74 671.565M1052.83 678.643C1049.63 675.437 1048.73 673.252 1048.58 668.734M1045.04 685.013C1034.82 681.657 1031.09 676.309 1029.47 668.734M1025.23 673.689C1020.2 681.455 1024.94 683.448 1032.3 685.013" stroke="#544241" stroke-opacity="0.25"/>
<path d="M504.251 684.306C489.51 677.109 484.656 674.301 490.095 665.195M508.498 680.767C504.251 675.812 504.643 670.894 511.329 670.858M501.42 677.936C498.219 674.729 497.318 672.544 497.173 668.026M493.634 684.306C483.405 680.949 479.675 675.602 478.063 668.026M473.816 672.981C468.794 680.747 473.525 682.741 480.894 684.306" stroke="#544241" stroke-opacity="0.25"/>
<path d="M689.026 824.279V665.195L699.256 597.675C699.478 596.208 700.739 595.124 702.222 595.124H826.64C828.1 595.124 829.349 596.177 829.596 597.616L841.201 665.195V824.279C841.201 825.936 839.858 827.279 838.201 827.279H692.026C690.369 827.279 689.026 825.936 689.026 824.279Z" fill="#E24B35"/>
<rect x="718.045" y="617.066" width="93.4283" height="36.8051" rx="3" fill="#544241"/>
<path d="M696.104 819.494V673.689H832.707L696.104 819.494Z" fill="#B7392B"/>
<path d="M792.363 728.189L778.915 735.974L788.117 752.961H776.792V747.299L768.298 760.747L776.792 774.903V767.825H785.226C787.014 767.825 788.666 766.87 789.559 765.32L800.141 746.94C801.023 745.408 801.031 743.524 800.161 741.985L792.363 728.189Z" fill="white"/>
<path d="M765.051 769.034L765.109 753.495L745.8 752.875L751.511 743.095L756.401 745.951L749.071 731.835L732.564 732.031L738.676 735.6L734.423 742.883C733.521 744.427 733.513 746.336 734.401 747.888L744.936 766.295C745.815 767.829 747.438 768.786 749.205 768.811L765.051 769.034Z" fill="white"/>
<path d="M743.844 724.67L757.275 732.485L767.46 716.068L773.078 725.901L768.161 728.71L784.051 729.414L792.129 715.016L785.983 718.528L781.799 711.205C780.912 709.652 779.263 708.691 777.475 708.685L756.266 708.615C754.498 708.609 752.859 709.537 751.954 711.056L743.844 724.67Z" fill="white"/>
<path d="M829.876 818.078V789.766C829.876 788.985 830.51 788.351 831.292 788.351C832.073 788.351 832.707 788.985 832.707 789.766V818.078C832.707 818.86 832.073 819.494 831.292 819.494C830.51 819.494 829.876 818.86 829.876 818.078Z" fill="#B7392B"/>
<path d="M829.876 783.396V779.857C829.876 779.076 830.51 778.442 831.292 778.442C832.073 778.442 832.707 779.076 832.707 779.857V783.396C832.707 784.178 832.073 784.812 831.292 784.812C830.51 784.812 829.876 784.178 829.876 783.396Z" fill="#B7392B"/>
<path d="M829.876 774.195V745.883C829.876 745.102 830.51 744.468 831.292 744.468C832.073 744.468 832.707 745.102 832.707 745.883V774.195C832.707 774.977 832.073 775.611 831.292 775.611C830.51 775.611 829.876 774.977 829.876 774.195Z" fill="#BA382A"/>
<path d="M829.876 739.513V735.974C829.876 735.193 830.51 734.559 831.292 734.559C832.073 734.559 832.707 735.193 832.707 735.974V739.513C832.707 740.295 832.073 740.929 831.292 740.929C830.51 740.929 829.876 740.295 829.876 739.513Z" fill="#BA382A"/>
<path d="M702.474 718.987V690.676C702.474 689.894 703.108 689.26 703.889 689.26C704.671 689.26 705.305 689.894 705.305 690.676V718.987C705.305 719.769 704.671 720.403 703.889 720.403C703.108 720.403 702.474 719.769 702.474 718.987Z" fill="#E24B35"/>
<path d="M702.474 684.306V680.767C702.474 679.985 703.108 679.351 703.889 679.351C704.671 679.351 705.305 679.985 705.305 680.767V684.306C705.305 685.088 704.671 685.721 703.889 685.721C703.108 685.721 702.474 685.088 702.474 684.306Z" fill="#E24B35"/>
<path d="M725.123 648.708H753.435C753.94 648.708 754.35 649.118 754.35 649.624C754.35 650.13 753.94 650.54 753.435 650.54H725.123C724.617 650.54 724.207 650.13 724.207 649.624C724.207 649.118 724.617 648.708 725.123 648.708Z" fill="white" stroke="#5F4B4B" stroke-linecap="round" stroke-linejoin="round"/>
<path d="M759.805 648.708H763.344C763.849 648.708 764.259 649.118 764.259 649.624C764.259 650.13 763.849 650.54 763.344 650.54H759.805C759.299 650.54 758.889 650.13 758.889 649.624C758.889 649.118 759.299 648.708 759.805 648.708Z" fill="white" stroke="#5F4B4B" stroke-linecap="round" stroke-linejoin="round"/>
<path d="M511.37 824.987V665.903L521.601 598.382C521.823 596.916 523.084 595.832 524.567 595.832H648.984C650.445 595.832 651.694 596.884 651.941 598.324L663.545 665.903V824.987C663.545 826.644 662.202 827.987 660.545 827.987H514.37C512.714 827.987 511.37 826.644 511.37 824.987Z" fill="#FFCA28"/>
<rect x="540.39" y="617.773" width="93.4283" height="36.8051" rx="3" fill="#544241"/>
<path d="M518.448 820.201V674.397H655.052L518.448 820.201Z" fill="#FBA926"/>
<path d="M614.708 728.896L601.26 736.682L610.461 753.669H599.136V748.007L590.643 761.455L599.136 775.611V768.533H607.57C609.359 768.533 611.011 767.577 611.903 766.028L622.486 747.648C623.368 746.115 623.375 744.231 622.506 742.692L614.708 728.896Z" fill="white"/>
<path d="M587.396 769.742L587.454 754.203L568.145 753.582L573.856 743.803L578.745 746.658L571.416 732.542L554.908 732.738L561.021 736.308L556.767 743.591C555.866 745.135 555.857 747.044 556.746 748.596L567.281 767.003C568.159 768.537 569.782 769.494 571.55 769.519L587.396 769.742Z" fill="white"/>
<path d="M566.188 725.378L579.62 733.192L589.804 716.776L595.422 726.609L590.506 729.418L606.396 730.121L614.474 715.724L608.328 719.235L604.144 711.912C603.257 710.36 601.608 709.399 599.819 709.393L578.611 709.323C576.843 709.317 575.203 710.245 574.298 711.764L566.188 725.378Z" fill="white"/>
<path d="M652.221 818.786V790.474C652.221 789.692 652.854 789.059 653.636 789.059C654.418 789.059 655.052 789.692 655.052 790.474V818.786C655.052 819.568 654.418 820.201 653.636 820.201C652.854 820.201 652.221 819.568 652.221 818.786Z" fill="#FBA926"/>
<path d="M652.221 784.104V780.565C652.221 779.783 652.854 779.15 653.636 779.15C654.418 779.15 655.052 779.783 655.052 780.565V784.104C655.052 784.886 654.418 785.52 653.636 785.52C652.854 785.52 652.221 784.886 652.221 784.104Z" fill="#FBA926"/>
<path d="M652.221 774.903V746.591C652.221 745.809 652.854 745.176 653.636 745.176C654.418 745.176 655.052 745.809 655.052 746.591V774.903C655.052 775.685 654.418 776.318 653.636 776.318C652.854 776.318 652.221 775.685 652.221 774.903Z" fill="#FBA926"/>
<path d="M652.221 740.221V736.682C652.221 735.9 652.854 735.267 653.636 735.267C654.418 735.267 655.052 735.9 655.052 736.682V740.221C655.052 741.003 654.418 741.637 653.636 741.637C652.854 741.637 652.221 741.003 652.221 740.221Z" fill="#FBA926"/>
<path d="M524.818 719.695V691.384C524.818 690.602 525.452 689.968 526.234 689.968C527.016 689.968 527.65 690.602 527.65 691.384V719.695C527.65 720.477 527.016 721.111 526.234 721.111C525.452 721.111 524.818 720.477 524.818 719.695Z" fill="#FFCA28"/>
<path d="M524.818 685.013V681.474C524.818 680.693 525.452 680.059 526.234 680.059C527.016 680.059 527.65 680.693 527.65 681.474V685.013C527.65 685.795 527.016 686.429 526.234 686.429C525.452 686.429 524.818 685.795 524.818 685.013Z" fill="#FFCA28"/>
<path d="M547.468 649.416H575.779C576.285 649.416 576.695 649.826 576.695 650.332C576.695 650.837 576.285 651.247 575.779 651.247H547.468C546.962 651.247 546.552 650.837 546.552 650.332C546.552 649.826 546.962 649.416 547.468 649.416Z" fill="white" stroke="#5F4B4B" stroke-linecap="round" stroke-linejoin="round"/>
<path d="M582.149 649.416H585.688C586.194 649.416 586.604 649.826 586.604 650.332C586.604 650.837 586.194 651.247 585.688 651.247H582.149C581.644 651.247 581.234 650.837 581.234 650.332C581.234 649.826 581.644 649.416 582.149 649.416Z" fill="white" stroke="#5F4B4B" stroke-linecap="round" stroke-linejoin="round"/>
<rect width="31.6976" height="55.3383" transform="matrix(0.981856 -0.189625 0.189247 0.981929 546.602 607.343)" fill="#FFCA28"/>
<path d="M583.35 630.668C571.811 634.724 564.699 636.281 552.506 637.272C551.903 637.322 551.477 637.889 551.604 638.481L552.904 644.555C553.01 645.05 553.472 645.388 553.976 645.34C566.151 644.179 573.306 642.682 585.306 638.633C585.787 638.471 586.072 637.973 585.966 637.478L584.665 631.402C584.539 630.811 583.92 630.467 583.35 630.668Z" fill="white"/>
<path d="M587.239 650.713C575.701 654.77 568.589 656.326 556.395 657.318C555.792 657.367 555.366 657.935 555.493 658.527L556.793 664.6C556.899 665.095 557.361 665.433 557.865 665.385C570.04 664.224 577.195 662.727 589.195 658.679C589.676 658.517 589.961 658.019 589.855 657.523L588.554 651.447C588.428 650.857 587.809 650.512 587.239 650.713Z" fill="white"/>
<path d="M585.54 640.902C574.002 644.959 566.89 646.515 554.697 647.507C554.093 647.556 553.667 648.124 553.794 648.716L555.094 654.789C555.2 655.284 555.663 655.622 556.167 655.574C568.341 654.413 575.496 652.916 587.497 648.868C587.977 648.706 588.262 648.208 588.156 647.712L586.856 641.636C586.729 641.046 586.11 640.701 585.54 640.902Z" fill="white"/>
<path d="M545.631 607.701C546.938 602.005 548.557 599.2 553.152 595.356C553.275 595.253 553.424 595.18 553.582 595.147L567.053 592.263C567.258 592.22 567.473 592.242 567.665 592.327C572.472 594.478 574.923 596.691 578.259 601.789C578.326 601.891 578.374 602.007 578.4 602.126L583.677 626.786C583.779 627.259 583.523 627.74 583.073 627.92C571.693 632.499 564.517 633.979 551.658 634.638C551.162 634.663 550.72 634.319 550.625 633.831L545.624 608.114C545.598 607.978 545.6 607.836 545.631 607.701Z" fill="white"/>
<rect x="552.059" y="590.121" width="14.7923" height="5.23296" transform="rotate(-12.0801 552.059 590.121)" fill="#FFCA28"/>
<rect x="551.683" y="593.412" width="16.9055" height="1.04659" rx="0.523296" transform="rotate(-12.0801 551.683 593.412)" fill="#EAAC3E"/>
<rect x="548.24" y="582.376" width="19.0187" height="10.4659" rx="1" transform="rotate(-12.0801 548.24 582.376)" fill="white"/>
<rect x="553" y="655" width="39.6363" height="9.90907" fill="#FFCA28"/>
<path d="M552 663.123L566.156 661.708L566.156 670.909L552 670.909L552 663.123Z" fill="#FFCA28"/>
<path d="M866.681 824.987V665.903L876.912 598.382C877.134 596.916 878.394 595.832 879.878 595.832H1004.29C1005.76 595.832 1007 596.884 1007.25 598.324L1018.86 665.903V824.987C1018.86 826.644 1017.51 827.987 1015.86 827.987H869.681C868.024 827.987 866.681 826.644 866.681 824.987Z" fill="#3CDC60"/>
<rect x="895.701" y="617.773" width="93.4283" height="36.8051" rx="3" fill="#544241"/>
<path d="M873.759 820.201V674.397H1010.36L873.759 820.201Z" fill="#37BD55"/>
<path d="M970.019 728.896L956.571 736.682L965.772 753.669H954.447V748.007L945.954 761.455L954.447 775.611V768.533H962.881C964.67 768.533 966.322 767.577 967.214 766.028L977.797 747.648C978.679 746.116 978.686 744.232 977.816 742.692L970.019 728.896Z" fill="white"/>
<path d="M942.706 769.742L942.765 754.203L923.456 753.582L929.167 743.803L934.056 746.658L926.726 732.542L910.219 732.738L916.331 736.308L912.078 743.591C911.176 745.135 911.168 747.044 912.056 748.596L922.592 767.003C923.47 768.537 925.093 769.494 926.861 769.519L942.706 769.742Z" fill="white"/>
<path d="M921.499 725.378L934.93 733.192L945.115 716.776L950.733 726.609L945.817 729.418L961.707 730.121L969.784 715.724L963.639 719.235L959.455 711.912C958.568 710.36 956.918 709.399 955.13 709.393L933.921 709.323C932.154 709.317 930.514 710.245 929.609 711.764L921.499 725.378Z" fill="white"/>
<path d="M1007.53 818.786V790.474C1007.53 789.692 1008.17 789.059 1008.95 789.059C1009.73 789.059 1010.36 789.692 1010.36 790.474V818.786C1010.36 819.568 1009.73 820.201 1008.95 820.201C1008.17 820.201 1007.53 819.568 1007.53 818.786Z" fill="#37BD55"/>
<path d="M1007.53 784.104V780.565C1007.53 779.783 1008.17 779.15 1008.95 779.15C1009.73 779.15 1010.36 779.783 1010.36 780.565V784.104C1010.36 784.886 1009.73 785.52 1008.95 785.52C1008.17 785.52 1007.53 784.886 1007.53 784.104Z" fill="#37BD55"/>
<path d="M1007.53 774.903V746.591C1007.53 745.809 1008.17 745.176 1008.95 745.176C1009.73 745.176 1010.36 745.809 1010.36 746.591V774.903C1010.36 775.685 1009.73 776.318 1008.95 776.318C1008.17 776.318 1007.53 775.685 1007.53 774.903Z" fill="#37BD55"/>
<path d="M1007.53 740.221V736.682C1007.53 735.9 1008.17 735.267 1008.95 735.267C1009.73 735.267 1010.36 735.9 1010.36 736.682V740.221C1010.36 741.003 1009.73 741.637 1008.95 741.637C1008.17 741.637 1007.53 741.003 1007.53 740.221Z" fill="#37BD55"/>
<path d="M880.129 719.695V691.384C880.129 690.602 880.763 689.968 881.545 689.968C882.327 689.968 882.96 690.602 882.96 691.384V719.695C882.96 720.477 882.327 721.111 881.545 721.111C880.763 721.111 880.129 720.477 880.129 719.695Z" fill="#3CDC60"/>
<path d="M880.129 685.013V681.475C880.129 680.693 880.763 680.059 881.545 680.059C882.327 680.059 882.96 680.693 882.96 681.475V685.013C882.96 685.795 882.327 686.429 881.545 686.429C880.763 686.429 880.129 685.795 880.129 685.013Z" fill="#3CDC60"/>
<path d="M902.779 649.416H931.09C931.596 649.416 932.006 649.826 932.006 650.332C932.006 650.837 931.596 651.247 931.09 651.247H902.779C902.273 651.247 901.863 650.837 901.863 650.332C901.863 649.826 902.273 649.416 902.779 649.416Z" fill="white" stroke="#5F4B4B" stroke-linecap="round" stroke-linejoin="round"/>
<path d="M937.46 649.416H940.999C941.505 649.416 941.915 649.826 941.915 650.332C941.915 650.837 941.505 651.247 940.999 651.247H937.46C936.955 651.247 936.545 650.837 936.545 650.332C936.545 649.826 936.955 649.416 937.46 649.416Z" fill="white" stroke="#5F4B4B" stroke-linecap="round" stroke-linejoin="round"/>
<path d="M561.791 419.11V428.758H528.455V378.862H539.687V419.11H561.791ZM566.505 410.11C566.505 406.75 567.009 403.822 568.017 401.326C569.073 398.782 570.441 396.67 572.121 394.99C573.801 393.31 575.721 392.038 577.881 391.174C580.089 390.31 582.345 389.878 584.649 389.878C590.025 389.878 594.273 391.534 597.393 394.846C600.513 398.11 602.073 402.934 602.073 409.318C602.073 409.942 602.049 410.638 602.001 411.406C601.953 412.126 601.905 412.774 601.857 413.35H577.521C577.761 415.558 578.793 417.31 580.617 418.606C582.441 419.902 584.889 420.55 587.961 420.55C589.929 420.55 591.849 420.382 593.721 420.046C595.641 419.662 597.201 419.206 598.401 418.678L599.841 427.39C599.265 427.678 598.497 427.966 597.537 428.254C596.577 428.542 595.497 428.782 594.297 428.974C593.145 429.214 591.897 429.406 590.553 429.55C589.209 429.694 587.865 429.766 586.521 429.766C583.113 429.766 580.137 429.262 577.593 428.254C575.097 427.246 573.009 425.878 571.329 424.15C569.697 422.374 568.473 420.286 567.657 417.886C566.889 415.486 566.505 412.894 566.505 410.11ZM591.705 406.006C591.657 405.094 591.489 404.206 591.201 403.342C590.961 402.478 590.553 401.71 589.977 401.038C589.449 400.366 588.753 399.814 587.889 399.382C587.073 398.95 586.041 398.734 584.793 398.734C583.593 398.734 582.561 398.95 581.697 399.382C580.833 399.766 580.113 400.294 579.537 400.966C578.961 401.638 578.505 402.43 578.169 403.342C577.881 404.206 577.665 405.094 577.521 406.006H591.705ZM609.992 381.454L620.72 379.726V390.886H633.608V399.814H620.72V413.134C620.72 415.39 621.104 417.19 621.872 418.534C622.688 419.878 624.296 420.55 626.696 420.55C627.848 420.55 629.024 420.454 630.224 420.262C631.472 420.022 632.6 419.71 633.608 419.326L635.12 427.678C633.824 428.206 632.384 428.662 630.8 429.046C629.216 429.43 627.272 429.622 624.968 429.622C622.04 429.622 619.616 429.238 617.696 428.47C615.776 427.654 614.24 426.55 613.088 425.158C611.936 423.718 611.12 421.99 610.64 419.974C610.208 417.958 609.992 415.726 609.992 413.278V381.454ZM651.632 373.534C651.728 374.206 651.8 374.902 651.848 375.622C651.896 376.342 651.92 376.87 651.92 377.206C651.92 380.422 651.344 383.494 650.192 386.422C649.04 389.302 647.624 391.75 645.944 393.766L638.384 392.038C639.296 389.974 640.016 387.646 640.544 385.054C641.12 382.462 641.408 379.99 641.408 377.638C641.408 377.542 641.408 377.35 641.408 377.062C641.408 376.726 641.384 376.366 641.336 375.982C641.336 375.55 641.312 375.118 641.264 374.686C641.264 374.254 641.24 373.87 641.192 373.534H651.632ZM665.169 421.054C667.137 421.054 668.529 420.862 669.345 420.478C670.161 420.094 670.569 419.35 670.569 418.246C670.569 417.382 670.041 416.638 668.985 416.014C667.929 415.342 666.321 414.598 664.161 413.782C662.481 413.158 660.945 412.51 659.553 411.838C658.209 411.166 657.057 410.374 656.097 409.462C655.137 408.502 654.393 407.374 653.865 406.078C653.337 404.782 653.073 403.222 653.073 401.398C653.073 397.846 654.393 395.038 657.033 392.974C659.673 390.91 663.297 389.878 667.905 389.878C670.209 389.878 672.417 390.094 674.529 390.526C676.641 390.91 678.321 391.342 679.569 391.822L677.697 400.174C676.449 399.742 675.081 399.358 673.593 399.022C672.153 398.686 670.521 398.518 668.697 398.518C665.337 398.518 663.657 399.454 663.657 401.326C663.657 401.758 663.729 402.142 663.873 402.478C664.017 402.814 664.305 403.15 664.737 403.486C665.169 403.774 665.745 404.11 666.465 404.494C667.233 404.83 668.193 405.214 669.345 405.646C671.697 406.51 673.641 407.374 675.177 408.238C676.713 409.054 677.913 409.966 678.777 410.974C679.689 411.934 680.313 413.014 680.649 414.214C681.033 415.414 681.225 416.806 681.225 418.39C681.225 422.134 679.809 424.966 676.977 426.886C674.193 428.806 670.233 429.766 665.097 429.766C661.737 429.766 658.929 429.478 656.673 428.902C654.465 428.326 652.929 427.846 652.065 427.462L653.865 418.75C655.689 419.47 657.561 420.046 659.481 420.478C661.401 420.862 663.297 421.054 665.169 421.054ZM717.412 421.054C719.38 421.054 720.772 420.862 721.588 420.478C722.404 420.094 722.812 419.35 722.812 418.246C722.812 417.382 722.284 416.638 721.228 416.014C720.172 415.342 718.564 414.598 716.404 413.782C714.724 413.158 713.188 412.51 711.796 411.838C710.452 411.166 709.3 410.374 708.34 409.462C707.38 408.502 706.636 407.374 706.108 406.078C705.58 404.782 705.316 403.222 705.316 401.398C705.316 397.846 706.636 395.038 709.276 392.974C711.916 390.91 715.54 389.878 720.148 389.878C722.452 389.878 724.66 390.094 726.772 390.526C728.884 390.91 730.564 391.342 731.812 391.822L729.94 400.174C728.692 399.742 727.324 399.358 725.836 399.022C724.396 398.686 722.764 398.518 720.94 398.518C717.58 398.518 715.9 399.454 715.9 401.326C715.9 401.758 715.972 402.142 716.116 402.478C716.26 402.814 716.548 403.15 716.98 403.486C717.412 403.774 717.988 404.11 718.708 404.494C719.476 404.83 720.436 405.214 721.588 405.646C723.94 406.51 725.884 407.374 727.42 408.238C728.956 409.054 730.156 409.966 731.02 410.974C731.932 411.934 732.556 413.014 732.892 414.214C733.276 415.414 733.468 416.806 733.468 418.39C733.468 422.134 732.052 424.966 729.22 426.886C726.436 428.806 722.476 429.766 717.34 429.766C713.98 429.766 711.172 429.478 708.916 428.902C706.708 428.326 705.172 427.846 704.308 427.462L706.108 418.75C707.932 419.47 709.804 420.046 711.724 420.478C713.644 420.862 715.54 421.054 717.412 421.054ZM755.957 421.27C757.013 421.27 758.021 421.246 758.981 421.198C759.941 421.15 760.709 421.078 761.285 420.982V412.846C760.853 412.75 760.205 412.654 759.341 412.558C758.477 412.462 757.685 412.414 756.965 412.414C755.957 412.414 754.997 412.486 754.085 412.63C753.221 412.726 752.453 412.942 751.781 413.278C751.109 413.614 750.581 414.07 750.197 414.646C749.813 415.222 749.621 415.942 749.621 416.806C749.621 418.486 750.173 419.662 751.277 420.334C752.429 420.958 753.989 421.27 755.957 421.27ZM755.093 389.878C758.261 389.878 760.901 390.238 763.013 390.958C765.125 391.678 766.805 392.71 768.053 394.054C769.349 395.398 770.261 397.03 770.789 398.95C771.317 400.87 771.581 403.006 771.581 405.358V427.678C770.045 428.014 767.909 428.398 765.173 428.83C762.437 429.31 759.125 429.55 755.237 429.55C752.789 429.55 750.557 429.334 748.541 428.902C746.573 428.47 744.869 427.774 743.429 426.814C741.989 425.806 740.885 424.51 740.117 422.926C739.349 421.342 738.965 419.398 738.965 417.094C738.965 414.886 739.397 413.014 740.261 411.478C741.173 409.942 742.373 408.718 743.861 407.806C745.349 406.894 747.053 406.246 748.973 405.862C750.893 405.43 752.885 405.214 754.949 405.214C756.341 405.214 757.565 405.286 758.621 405.43C759.725 405.526 760.613 405.67 761.285 405.862V404.854C761.285 403.03 760.733 401.566 759.629 400.462C758.525 399.358 756.605 398.806 753.869 398.806C752.045 398.806 750.245 398.95 748.469 399.238C746.693 399.478 745.157 399.838 743.861 400.318L742.493 391.678C743.117 391.486 743.885 391.294 744.797 391.102C745.757 390.862 746.789 390.67 747.893 390.526C748.997 390.334 750.149 390.19 751.349 390.094C752.597 389.95 753.845 389.878 755.093 389.878ZM790.664 428.758C788.216 423.958 785.72 418.342 783.176 411.91C780.68 405.478 778.304 398.47 776.048 390.886H787.424C787.904 392.758 788.456 394.798 789.08 397.006C789.752 399.166 790.424 401.374 791.096 403.63C791.816 405.838 792.512 407.998 793.184 410.11C793.904 412.222 794.6 414.142 795.272 415.87C795.896 414.142 796.568 412.222 797.288 410.11C798.008 407.998 798.704 405.838 799.376 403.63C800.096 401.374 800.768 399.166 801.392 397.006C802.064 394.798 802.64 392.758 803.12 390.886H814.208C811.952 398.47 809.552 405.478 807.008 411.91C804.512 418.342 802.04 423.958 799.592 428.758H790.664ZM817.169 410.11C817.169 406.75 817.673 403.822 818.681 401.326C819.737 398.782 821.105 396.67 822.785 394.99C824.465 393.31 826.385 392.038 828.545 391.174C830.753 390.31 833.009 389.878 835.313 389.878C840.689 389.878 844.937 391.534 848.057 394.846C851.177 398.11 852.737 402.934 852.737 409.318C852.737 409.942 852.713 410.638 852.665 411.406C852.617 412.126 852.569 412.774 852.521 413.35H828.185C828.425 415.558 829.457 417.31 831.281 418.606C833.105 419.902 835.553 420.55 838.625 420.55C840.593 420.55 842.513 420.382 844.385 420.046C846.305 419.662 847.865 419.206 849.065 418.678L850.505 427.39C849.929 427.678 849.161 427.966 848.201 428.254C847.241 428.542 846.161 428.782 844.961 428.974C843.809 429.214 842.561 429.406 841.217 429.55C839.873 429.694 838.529 429.766 837.185 429.766C833.777 429.766 830.801 429.262 828.257 428.254C825.761 427.246 823.673 425.878 821.993 424.15C820.361 422.374 819.137 420.286 818.321 417.886C817.553 415.486 817.169 412.894 817.169 410.11ZM842.369 406.006C842.321 405.094 842.153 404.206 841.865 403.342C841.625 402.478 841.217 401.71 840.641 401.038C840.113 400.366 839.417 399.814 838.553 399.382C837.737 398.95 836.705 398.734 835.457 398.734C834.257 398.734 833.225 398.95 832.361 399.382C831.497 399.766 830.777 400.294 830.201 400.966C829.625 401.638 829.169 402.43 828.833 403.342C828.545 404.206 828.329 405.094 828.185 406.006H842.369ZM527.375 464.454L538.103 462.726V473.886H550.991V482.814H538.103V496.134C538.103 498.39 538.487 500.19 539.255 501.534C540.071 502.878 541.679 503.55 544.079 503.55C545.231 503.55 546.407 503.454 547.607 503.262C548.855 503.022 549.983 502.71 550.991 502.326L552.503 510.678C551.207 511.206 549.767 511.662 548.183 512.046C546.599 512.43 544.655 512.622 542.351 512.622C539.423 512.622 536.999 512.238 535.079 511.47C533.159 510.654 531.623 509.55 530.471 508.158C529.319 506.718 528.503 504.99 528.023 502.974C527.591 500.958 527.375 498.726 527.375 496.278V464.454ZM559.727 511.758V457.614L570.455 455.886V474.03C571.175 473.79 572.087 473.574 573.191 473.382C574.343 473.142 575.447 473.022 576.503 473.022C579.575 473.022 582.119 473.454 584.135 474.318C586.199 475.134 587.831 476.31 589.031 477.846C590.279 479.382 591.143 481.206 591.623 483.318C592.151 485.43 592.415 487.782 592.415 490.374V511.758H581.687V491.67C581.687 488.214 581.231 485.766 580.319 484.326C579.455 482.886 577.823 482.166 575.423 482.166C574.463 482.166 573.551 482.262 572.687 482.454C571.871 482.598 571.127 482.766 570.455 482.958V511.758H559.727ZM600.326 493.11C600.326 489.75 600.83 486.822 601.838 484.326C602.894 481.782 604.262 479.67 605.942 477.99C607.622 476.31 609.542 475.038 611.702 474.174C613.91 473.31 616.166 472.878 618.47 472.878C623.846 472.878 628.094 474.534 631.214 477.846C634.334 481.11 635.894 485.934 635.894 492.318C635.894 492.942 635.87 493.638 635.822 494.406C635.774 495.126 635.726 495.774 635.678 496.35H611.342C611.582 498.558 612.614 500.31 614.438 501.606C616.262 502.902 618.71 503.55 621.782 503.55C623.75 503.55 625.67 503.382 627.542 503.046C629.462 502.662 631.022 502.206 632.222 501.678L633.662 510.39C633.086 510.678 632.318 510.966 631.358 511.254C630.398 511.542 629.318 511.782 628.118 511.974C626.966 512.214 625.718 512.406 624.374 512.55C623.03 512.694 621.686 512.766 620.342 512.766C616.934 512.766 613.958 512.262 611.414 511.254C608.918 510.246 606.83 508.878 605.15 507.15C603.518 505.374 602.294 503.286 601.478 500.886C600.71 498.486 600.326 495.894 600.326 493.11ZM625.526 489.006C625.478 488.094 625.31 487.206 625.022 486.342C624.782 485.478 624.374 484.71 623.798 484.038C623.27 483.366 622.574 482.814 621.71 482.382C620.894 481.95 619.862 481.734 618.614 481.734C617.414 481.734 616.382 481.95 615.518 482.382C614.654 482.766 613.934 483.294 613.358 483.966C612.782 484.638 612.326 485.43 611.99 486.342C611.702 487.206 611.486 488.094 611.342 489.006H625.526ZM684.509 490.014C683.549 493.662 682.517 497.286 681.413 500.886C680.357 504.486 679.229 508.11 678.029 511.758H669.677C668.813 509.742 667.877 507.342 666.869 504.558C665.861 501.774 664.805 498.75 663.701 495.486C662.645 492.174 661.541 488.694 660.389 485.046C659.285 481.35 658.205 477.63 657.149 473.886H668.453C668.837 475.614 669.245 477.51 669.677 479.574C670.157 481.59 670.637 483.678 671.117 485.838C671.645 487.998 672.173 490.182 672.701 492.39C673.277 494.55 673.853 496.638 674.429 498.654C675.053 496.542 675.653 494.382 676.229 492.174C676.853 489.966 677.429 487.806 677.957 485.694C678.533 483.534 679.061 481.47 679.541 479.502C680.069 477.486 680.525 475.614 680.909 473.886H688.685C689.069 475.614 689.501 477.486 689.981 479.502C690.461 481.47 690.965 483.534 691.493 485.694C692.021 487.806 692.573 489.966 693.149 492.174C693.725 494.382 694.325 496.542 694.949 498.654C695.525 496.638 696.101 494.55 696.677 492.39C697.253 490.182 697.781 487.998 698.261 485.838C698.789 483.678 699.269 481.59 699.701 479.574C700.181 477.51 700.613 475.614 700.997 473.886H712.157C711.101 477.63 709.997 481.35 708.845 485.046C707.741 488.694 706.637 492.174 705.533 495.486C704.477 498.75 703.421 501.774 702.365 504.558C701.357 507.342 700.421 509.742 699.557 511.758H691.205C690.005 508.11 688.829 504.486 687.677 500.886C686.525 497.286 685.469 493.662 684.509 490.014ZM752.511 492.75C752.511 495.726 752.079 498.462 751.215 500.958C750.351 503.406 749.103 505.518 747.471 507.294C745.839 509.022 743.871 510.366 741.567 511.326C739.311 512.286 736.767 512.766 733.935 512.766C731.151 512.766 728.607 512.286 726.303 511.326C724.047 510.366 722.103 509.022 720.471 507.294C718.839 505.518 717.567 503.406 716.655 500.958C715.743 498.462 715.287 495.726 715.287 492.75C715.287 489.774 715.743 487.062 716.655 484.614C717.615 482.166 718.911 480.078 720.543 478.35C722.223 476.622 724.191 475.278 726.447 474.318C728.751 473.358 731.247 472.878 733.935 472.878C736.671 472.878 739.167 473.358 741.423 474.318C743.727 475.278 745.695 476.622 747.327 478.35C748.959 480.078 750.231 482.166 751.143 484.614C752.055 487.062 752.511 489.774 752.511 492.75ZM741.567 492.75C741.567 489.438 740.895 486.846 739.551 484.974C738.255 483.054 736.383 482.094 733.935 482.094C731.487 482.094 729.591 483.054 728.247 484.974C726.903 486.846 726.231 489.438 726.231 492.75C726.231 496.062 726.903 498.702 728.247 500.67C729.591 502.59 731.487 503.55 733.935 503.55C736.383 503.55 738.255 502.59 739.551 500.67C740.895 498.702 741.567 496.062 741.567 492.75ZM783.645 483.39C782.685 483.15 781.557 482.91 780.261 482.67C778.965 482.382 777.573 482.238 776.085 482.238C775.413 482.238 774.597 482.31 773.637 482.454C772.725 482.55 772.029 482.67 771.549 482.814V511.758H760.821V475.902C762.741 475.23 764.997 474.606 767.589 474.03C770.229 473.406 773.157 473.094 776.373 473.094C776.949 473.094 777.645 473.142 778.461 473.238C779.277 473.286 780.093 473.382 780.909 473.526C781.725 473.622 782.541 473.766 783.357 473.958C784.173 474.102 784.869 474.294 785.445 474.534L783.645 483.39ZM806.316 512.478C803.196 512.43 800.652 512.094 798.684 511.47C796.764 510.846 795.228 509.982 794.076 508.878C792.972 507.726 792.204 506.358 791.772 504.774C791.388 503.142 791.196 501.318 791.196 499.302V457.614L801.924 455.886V497.142C801.924 498.102 801.996 498.966 802.14 499.734C802.284 500.502 802.548 501.15 802.932 501.678C803.364 502.206 803.964 502.638 804.732 502.974C805.5 503.31 806.532 503.526 807.828 503.622L806.316 512.478ZM823.121 492.534C823.121 495.846 823.865 498.51 825.353 500.526C826.841 502.542 829.049 503.55 831.977 503.55C832.937 503.55 833.825 503.526 834.641 503.478C835.457 503.382 836.129 503.286 836.657 503.19V483.678C835.985 483.246 835.097 482.886 833.993 482.598C832.937 482.31 831.857 482.166 830.753 482.166C825.665 482.166 823.121 485.622 823.121 492.534ZM847.385 510.534C846.425 510.822 845.321 511.11 844.073 511.398C842.825 511.638 841.505 511.854 840.113 512.046C838.769 512.238 837.377 512.382 835.937 512.478C834.545 512.622 833.201 512.694 831.905 512.694C828.785 512.694 826.001 512.238 823.553 511.326C821.105 510.414 819.041 509.118 817.361 507.438C815.681 505.71 814.385 503.646 813.473 501.246C812.609 498.798 812.177 496.062 812.177 493.038C812.177 489.966 812.561 487.206 813.329 484.758C814.097 482.262 815.201 480.15 816.641 478.422C818.081 476.694 819.833 475.374 821.897 474.462C824.009 473.55 826.409 473.094 829.097 473.094C830.585 473.094 831.905 473.238 833.057 473.526C834.257 473.814 835.457 474.222 836.657 474.75V457.614L847.385 455.886V510.534Z" fill="white"/>
<defs>
<linearGradient id="paint0_linear" x1="337.962" y1="193.011" x2="911.272" y2="924.159" gradientUnits="userSpaceOnUse">
<stop stop-color="#2BFFA6"/>
<stop offset="1" stop-color="#88FFCD"/>
</linearGradient>
<linearGradient id="paint1_linear" x1="954.295" y1="371.557" x2="283.361" y2="883.232" gradientUnits="userSpaceOnUse">
<stop stop-color="#17FF9E"/>
<stop offset="1" stop-color="#71FFC3"/>
</linearGradient>
</defs>
</svg>
