<svg width="263" height="263" viewBox="0 0 263 263" fill="none" xmlns="http://www.w3.org/2000/svg">
<circle cx="131.5" cy="131.5" r="131.5" fill="white"/>
<circle cx="131.5" cy="131.5" r="131.5" stroke="url(#paint0_linear)"/>
<path d="M135.562 70.084L134.882 68.7471L133.875 69.2592L134.089 70.3682L135.562 70.084ZM208.38 60.1439L209.854 59.8646L209.654 58.8116L208.593 58.6592L208.38 60.1439ZM186.18 132.824L185.468 134.144L186.552 134.729L187.337 133.779L186.18 132.824ZM40.0753 167.73L39.2553 166.474L36.8886 168.019L39.4945 169.113L40.0753 167.73ZM66.6143 178.874L68.0651 178.493L67.8771 177.777L67.195 177.491L66.6143 178.874ZM73.9312 206.721L72.4805 207.102L72.9707 208.968L74.6582 208.033L73.9312 206.721ZM164.394 144.313C164.92 144.954 165.865 145.046 166.505 144.52C167.145 143.995 167.238 143.049 166.712 142.409L164.394 144.313ZM124.075 90.4999C123.549 89.8597 122.604 89.767 121.964 90.2928C121.324 90.8187 121.231 91.7639 121.757 92.404L124.075 90.4999ZM147.938 150.738C148.464 151.378 149.409 151.471 150.049 150.945C150.689 150.419 150.782 149.474 150.256 148.834L147.938 150.738ZM112.332 102.662C111.806 102.021 110.861 101.929 110.221 102.455C109.581 102.98 109.488 103.926 110.014 104.566L112.332 102.662ZM104.033 120.688C103.507 120.048 102.562 119.955 101.922 120.481C101.281 121.007 101.189 121.952 101.715 122.592L104.033 120.688ZM129.99 157.016C130.515 157.656 131.461 157.749 132.101 157.223C132.741 156.697 132.834 155.752 132.308 155.112L129.99 157.016ZM95.9166 136.987C95.3989 136.34 94.4549 136.236 93.8082 136.753C93.1614 137.271 93.0567 138.215 93.5744 138.862L95.9166 136.987ZM111.029 160.669C111.547 161.316 112.491 161.421 113.138 160.903C113.784 160.385 113.889 159.441 113.371 158.795L111.029 160.669ZM136.242 71.421C148.447 65.2127 158.43 61.6425 169.311 60.1724C180.212 58.6997 192.109 59.3214 208.166 61.6287L208.593 58.6592C192.427 56.3363 180.213 55.6724 168.91 57.1994C157.587 58.7291 147.273 62.444 134.882 68.7471L136.242 71.421ZM206.906 60.4232C209.529 74.2615 209.551 85.3895 206.228 96.3682C202.897 107.375 196.162 118.371 185.023 131.869L187.337 133.779C198.586 120.148 205.602 108.793 209.1 97.2372C212.606 85.653 212.534 74.0058 209.854 59.8646L206.906 60.4232ZM186.892 131.504C172.394 123.683 164.959 118.711 154.343 106.742L152.099 108.733C163.023 121.049 170.778 126.22 185.468 134.144L186.892 131.504ZM154.397 106.806C149.958 101.203 146.607 96.9322 143.862 91.5832C141.125 86.2496 138.96 79.7778 137.035 69.7999L134.089 70.3682C136.048 80.5206 138.285 87.2868 141.193 92.953C144.093 98.6038 147.629 103.095 152.045 108.669L154.397 106.806ZM152.269 106.578L91.3437 156.621L93.2479 158.939L154.173 108.897L152.269 106.578ZM92.7336 156.345C82.7535 153.299 74.4973 152.433 66.1144 154.081C57.7656 155.723 49.4327 159.831 39.2553 166.474L40.8952 168.986C50.9521 162.422 58.9033 158.556 66.6931 157.025C74.4489 155.5 82.1859 156.263 91.858 159.214L92.7336 156.345ZM39.4945 169.113L66.0336 180.257L67.195 177.491L40.656 166.347L39.4945 169.113ZM65.1636 179.255L72.4805 207.102L75.382 206.34L68.0651 178.493L65.1636 179.255ZM74.6582 208.033C82.6618 203.598 88.0245 197.467 91.08 189.134C94.1131 180.862 94.8394 170.511 93.7908 157.658L90.8008 157.902C91.8338 170.564 91.0812 180.416 88.2634 188.101C85.4678 195.726 80.6074 201.307 73.2042 205.409L74.6582 208.033ZM166.712 142.409L124.075 90.4999L121.757 92.404L164.394 144.313L166.712 142.409ZM150.256 148.834L112.332 102.662L110.014 104.566L147.938 150.738L150.256 148.834ZM101.715 122.592L129.99 157.016L132.308 155.112L104.033 120.688L101.715 122.592ZM93.5744 138.862L111.029 160.669L113.371 158.795L95.9166 136.987L93.5744 138.862Z" fill="#3CDC60"/>
<circle cx="161.808" cy="84.2135" r="7.5" transform="rotate(5.60125 161.808 84.2135)" fill="#3CDC60"/>
<defs>
<linearGradient id="paint0_linear" x1="131.5" y1="0" x2="131.5" y2="263" gradientUnits="userSpaceOnUse">
<stop stop-color="#D3D7DB"/>
<stop offset="1" stop-color="#CED2D6" stop-opacity="0"/>
</linearGradient>
</defs>
</svg>
