<svg width="263" height="263" viewBox="0 0 263 263" fill="none" xmlns="http://www.w3.org/2000/svg">
<circle cx="131.5" cy="131.5" r="131.5" fill="white"/>
<circle cx="131.5" cy="131.5" r="131.5" stroke="url(#paint0_linear)"/>
<path d="M180.007 69.5L190.389 59.9483C191.573 58.8594 193.405 58.8976 194.542 60.0348L202.886 68.3787C204.057 69.5503 204.057 71.4497 202.886 72.6213L193.507 82M180.007 69.5C171.804 65.953 166.578 65.8614 156.007 69.5C145.436 73.1386 70.007 155.939 70.007 155.939M180.007 69.5L193.507 82M193.507 82C198.173 91.0216 197.986 95.9102 195.507 104.5C193.028 113.09 108.374 192.5 108.374 192.5M108.374 192.5L95.4626 205.54C95.1623 205.843 94.7982 206.09 94.3877 206.207C88.1851 207.969 84.8118 199.597 83.5692 195.566C83.1909 194.339 82.1507 193.4 80.9072 193.08C77.7542 192.269 71.9952 190.03 70.3966 184.296C70.0287 182.976 69.0611 181.841 67.7246 181.54C61.127 180.053 58.107 177.663 58.0028 169.211C57.9933 168.437 58.3118 167.694 58.8578 167.145L70.007 155.939M108.374 192.5L70.007 155.939" stroke="#FFCA28" stroke-width="3"/>
<defs>
<linearGradient id="paint0_linear" x1="131.5" y1="0" x2="131.5" y2="263" gradientUnits="userSpaceOnUse">
<stop stop-color="#D3D7DB"/>
<stop offset="1" stop-color="#CED2D6" stop-opacity="0"/>
</linearGradient>
</defs>
</svg>
