<svg width="182" height="179" viewBox="0 0 182 179" fill="none" xmlns="http://www.w3.org/2000/svg">
<path d="M102.952 27.5625L102.272 26.2256L101.265 26.7377L101.479 27.8467L102.952 27.5625ZM175.769 17.6224L177.243 17.3431L177.044 16.2901L175.983 16.1377L175.769 17.6224ZM153.57 90.3027L152.857 91.6228L153.942 92.2079L154.726 91.2574L153.57 90.3027ZM7.46496 125.209L6.64506 123.953L4.27829 125.498L6.88424 126.592L7.46496 125.209ZM34.004 136.352L35.4548 135.971L35.2668 135.256L34.5847 134.969L34.004 136.352ZM41.3209 164.2L39.8702 164.581L40.3605 166.447L42.0479 165.512L41.3209 164.2ZM131.783 101.792C132.309 102.432 133.255 102.525 133.895 101.999C134.535 101.473 134.628 100.528 134.102 99.8878L131.783 101.792ZM91.4647 47.9784C90.9389 47.3382 89.9937 47.2455 89.3535 47.7714C88.7134 48.2972 88.6207 49.2424 89.1465 49.8825L91.4647 47.9784ZM115.328 108.216C115.854 108.857 116.799 108.949 117.439 108.424C118.079 107.898 118.172 106.953 117.646 106.312L115.328 108.216ZM79.7216 60.1401C79.1958 59.4999 78.2506 59.4072 77.6104 59.933C76.9703 60.4588 76.8776 61.4041 77.4034 62.0442L79.7216 60.1401ZM71.4226 78.1663C70.8967 77.5262 69.9515 77.4335 69.3114 77.9593C68.6712 78.4851 68.5785 79.4303 69.1043 80.0705L71.4226 78.1663ZM97.3794 114.495C97.9052 115.135 98.8504 115.227 99.4906 114.702C100.131 114.176 100.223 113.231 99.6976 112.59L97.3794 114.495ZM63.3063 94.4655C62.7886 93.8187 61.8446 93.7141 61.1979 94.2317C60.5511 94.7494 60.4465 95.6934 60.9641 96.3401L63.3063 94.4655ZM78.4189 118.148C78.9366 118.794 79.8806 118.899 80.5274 118.381C81.1741 117.864 81.2788 116.92 80.7611 116.273L78.4189 118.148ZM103.632 28.8995C115.836 22.6912 125.819 19.121 136.701 17.6509C147.602 16.1782 159.499 16.7999 175.556 19.1072L175.983 16.1377C159.817 13.8148 147.603 13.1509 136.299 14.6779C124.977 16.2076 114.662 19.9225 102.272 26.2256L103.632 28.8995ZM174.296 17.9017C176.918 31.74 176.941 42.8681 173.618 53.8467C170.287 64.8538 163.552 75.8495 152.413 89.3479L154.726 91.2574C165.976 77.6261 172.992 66.2715 176.489 54.7157C179.995 43.1316 179.923 31.4843 177.243 17.3431L174.296 17.9017ZM154.282 88.9825C139.783 81.1614 132.349 76.1892 121.733 64.2206L119.489 66.2113C130.413 78.5275 138.168 83.6988 152.857 91.6228L154.282 88.9825ZM121.787 64.2845C117.348 58.6813 113.996 54.4107 111.251 49.0617C108.514 43.7281 106.349 37.2563 104.424 27.2784L101.479 27.8467C103.437 37.9991 105.675 44.7653 108.582 50.4315C111.482 56.0823 115.019 60.5732 119.435 66.1474L121.787 64.2845ZM119.659 64.0568L58.7334 114.099L60.6376 116.417L121.563 66.3751L119.659 64.0568ZM60.1234 113.824C50.1432 110.778 41.887 109.912 33.5042 111.56C25.1553 113.201 16.8224 117.31 6.64506 123.953L8.28487 126.465C18.3418 119.9 26.293 116.035 34.0828 114.503C41.8386 112.979 49.5756 113.741 59.2477 116.693L60.1234 113.824ZM6.88424 126.592L33.4233 137.735L34.5847 134.969L8.04568 123.826L6.88424 126.592ZM32.5533 136.734L39.8702 164.581L42.7717 163.818L35.4548 135.971L32.5533 136.734ZM42.0479 165.512C50.0515 161.077 55.4143 154.946 58.4697 146.613C61.5029 138.34 62.2291 127.99 61.1806 115.136L58.1905 115.38C59.2235 128.043 58.4709 137.895 55.6531 145.58C52.8575 153.204 47.9972 158.785 40.594 162.887L42.0479 165.512ZM134.102 99.8878L91.4647 47.9784L89.1465 49.8825L131.783 101.792L134.102 99.8878ZM117.646 106.312L79.7216 60.1401L77.4034 62.0442L115.328 108.216L117.646 106.312ZM69.1043 80.0705L97.3794 114.495L99.6976 112.59L71.4226 78.1663L69.1043 80.0705ZM60.9641 96.3401L78.4189 118.148L80.7611 116.273L63.3063 94.4655L60.9641 96.3401Z" fill="#3CDC60"/>
<circle cx="129.198" cy="41.692" r="7.5" transform="rotate(5.60125 129.198 41.692)" fill="#3CDC60"/>
</svg>
