<svg width="160" height="160" viewBox="0 0 160 160" fill="none" xmlns="http://www.w3.org/2000/svg">
<path d="M81 34C68.7669 34 67.2423 34.0591 62.4549 34.2616C57.6477 34.4979 54.396 35.2433 51.5269 36.3572C48.5241 37.4908 45.8047 39.2657 43.5581 41.5581C41.2593 43.7994 39.4834 46.5204 38.3572 49.5269C37.2433 52.396 36.4979 55.6477 36.2616 60.4549C36.045 65.2452 36 66.7669 36 79C36 91.2331 36.0591 92.7577 36.2616 97.5451C36.4979 102.338 37.2433 105.604 38.3572 108.473C39.4908 111.476 41.2657 114.195 43.5581 116.442C45.7994 118.741 48.5204 120.517 51.5269 121.643C54.396 122.743 57.6618 123.502 62.4549 123.738C67.2452 123.955 68.7669 124 81 124C93.2331 124 94.7577 123.941 99.5451 123.738C104.338 123.502 107.604 122.74 110.473 121.643C113.476 120.509 116.195 118.734 118.442 116.442C120.744 114.203 122.52 111.481 123.643 108.473C124.743 105.604 125.502 102.338 125.738 97.5451C125.955 92.7548 126 91.2331 126 79C126 66.7669 125.941 65.2423 125.738 60.4549C125.502 55.6618 124.74 52.3792 123.643 49.5269C122.509 46.5241 120.734 43.8047 118.442 41.5581C116.203 39.2563 113.481 37.48 110.473 36.3572C107.604 35.2433 104.338 34.4979 99.5451 34.2616C94.7548 34.045 93.2331 34 81 34ZM81 42.101C93.0137 42.101 94.4482 42.1601 99.1963 42.3626C103.576 42.5679 105.961 43.2993 107.545 43.9181C109.503 44.6408 111.275 45.7911 112.732 47.2851C114.223 48.736 115.369 50.504 116.085 52.4579C116.704 54.0416 117.435 56.4269 117.64 60.8065C117.843 65.5546 117.902 66.9919 117.902 79.0028C117.902 91.0137 117.843 92.4511 117.623 97.1992C117.387 101.579 116.656 103.964 116.04 105.548C115.187 107.66 114.237 109.137 112.667 110.735C111.205 112.219 109.434 113.364 107.48 114.088C105.916 114.706 103.497 115.438 99.1007 115.643C94.3273 115.846 92.9209 115.905 80.8762 115.905C68.8316 115.905 67.428 115.846 62.649 115.626C58.2693 115.39 55.8531 114.659 54.2695 114.043C52.1317 113.19 50.6662 112.239 49.0966 110.67C47.513 109.086 46.506 107.579 45.7297 105.483C45.0996 103.919 44.3795 101.5 44.146 97.1035C43.9857 92.3864 43.9097 90.9237 43.9097 78.9353C43.9097 66.9526 43.9857 65.4871 44.146 60.7108C44.3795 56.3144 45.0996 53.9009 45.7297 52.3314C46.506 50.1908 47.5158 48.7281 49.0966 47.1445C50.6634 45.5777 52.1317 44.5651 54.2695 43.7718C55.8531 43.1558 58.2103 42.4245 62.6068 42.2051C67.3802 42.0335 68.7866 41.9716 80.8144 41.9716L81 42.101ZM81 55.9037C77.9659 55.9026 74.9613 56.4994 72.158 57.6599C69.3546 58.8205 66.8074 60.5222 64.662 62.6676C62.5165 64.813 60.8149 67.3602 59.6543 70.1636C58.4937 72.9669 57.8969 75.9715 57.8981 79.0056C57.8969 82.0397 58.4937 85.0443 59.6543 87.8477C60.8149 90.651 62.5165 93.1982 64.662 95.3436C66.8074 97.4891 69.3546 99.1907 72.158 100.351C74.9613 101.512 77.9659 102.109 81 102.108C84.0341 102.109 87.0387 101.512 89.842 100.351C92.6454 99.1907 95.1926 97.4891 97.338 95.3436C99.4835 93.1982 101.185 90.651 102.346 87.8477C103.506 85.0443 104.103 82.0397 104.102 79.0056C104.103 75.9715 103.506 72.9669 102.346 70.1636C101.185 67.3602 99.4835 64.813 97.338 62.6676C95.1926 60.5222 92.6454 58.8205 89.842 57.6599C87.0387 56.4994 84.0341 55.9026 81 55.9037V55.9037ZM81 94.0066C72.7077 94.0066 65.9991 87.2979 65.9991 79.0056C65.9991 70.7133 72.7077 64.0047 81 64.0047C89.2923 64.0047 96.0009 70.7133 96.0009 79.0056C96.0009 87.2979 89.2923 94.0066 81 94.0066ZM110.434 54.9811C110.432 56.4147 109.862 57.7891 108.847 58.8022C107.833 59.8154 106.458 60.3845 105.025 60.3845C104.316 60.3845 103.614 60.2449 102.959 59.9737C102.304 59.7024 101.709 59.3048 101.208 58.8036C100.706 58.3023 100.309 57.7073 100.038 57.0524C99.7663 56.3975 99.6267 55.6955 99.6267 54.9867C99.6267 54.2778 99.7663 53.5759 100.038 52.921C100.309 52.2661 100.706 51.6711 101.208 51.1698C101.709 50.6686 102.304 50.271 102.959 49.9997C103.614 49.7284 104.316 49.5888 105.025 49.5888C107.998 49.5888 110.434 52.0079 110.434 54.9811V54.9811Z" fill="#88FFCD"/>
<circle cx="80" cy="80" r="78" stroke="#88FFCD" stroke-width="4"/>
</svg>
