<svg width="222" height="60" viewBox="0 0 222 60" fill="none" xmlns="http://www.w3.org/2000/svg">
<path d="M20 60V45.8C18.4333 46.3667 16.7667 46.6667 15 46.6667C6.66667 46.6667 0 40 0 31.6667C0 27.4333 1.66667 23.6333 4.53333 20.9C3.76667 19.1 3.33333 17.1 3.33333 15C3.33333 6.66667 10 0 18.3333 0C23.5333 0 28.1333 2.66667 30.8333 6.66667H31.6667C34.0742 6.66667 36.4582 7.14087 38.6825 8.06221C40.9068 8.98354 42.9279 10.334 44.6303 12.0364C46.3327 13.7388 47.6831 15.7598 48.6045 17.9841C49.5258 20.2084 50 22.5924 50 25C50 27.4076 49.5258 29.7916 48.6045 32.0159C47.6831 34.2402 46.3327 36.2612 44.6303 37.9636C42.9279 39.666 40.9068 41.0165 38.6825 41.9378C36.4582 42.8591 34.0742 43.3333 31.6667 43.3333C30 43.3333 28.3333 43.1 26.6667 42.6333V60H20Z" fill="#1BD688"/>
<path d="M60.754 17.362C64.706 17.362 67.7333 18.0713 69.836 19.49C71.9387 20.8833 72.99 23.062 72.99 26.026C72.99 27.8753 72.5593 29.3827 71.698 30.548C70.862 31.688 69.646 32.5873 68.05 33.246C68.582 33.9047 69.1393 34.6647 69.722 35.526C70.3047 36.362 70.8747 37.2487 71.432 38.186C72.0147 39.098 72.572 40.0607 73.104 41.074C73.636 42.062 74.13 43.0373 74.586 44H67.936C67.4547 43.1387 66.9607 42.2647 66.454 41.378C65.9727 40.4913 65.466 39.63 64.934 38.794C64.4273 37.958 63.9207 37.1727 63.414 36.438C62.9073 35.678 62.4007 34.994 61.894 34.386H58.968V44H53.04V18.046C54.332 17.7927 55.662 17.6153 57.03 17.514C58.4233 17.4127 59.6647 17.362 60.754 17.362ZM61.096 22.416C60.6653 22.416 60.2727 22.4287 59.918 22.454C59.5887 22.4793 59.272 22.5047 58.968 22.53V29.674H60.64C62.8693 29.674 64.4653 29.3953 65.428 28.838C66.3907 28.2807 66.872 27.3307 66.872 25.988C66.872 24.696 66.378 23.784 65.39 23.252C64.4273 22.6947 62.996 22.416 61.096 22.416ZM78.3857 44V17.666H96.1697V22.644H84.3137V27.812H94.8397V32.676H84.3137V39.022H97.0437V44H78.3857ZM114.275 22.226C111.513 22.226 109.512 22.9987 108.271 24.544C107.055 26.064 106.447 28.154 106.447 30.814C106.447 32.106 106.599 33.284 106.903 34.348C107.207 35.3867 107.663 36.286 108.271 37.046C108.879 37.806 109.639 38.4013 110.551 38.832C111.463 39.2373 112.527 39.44 113.743 39.44C114.401 39.44 114.959 39.4273 115.415 39.402C115.896 39.3767 116.314 39.326 116.669 39.25V30.092H122.597V43.126C121.887 43.4047 120.747 43.696 119.177 44C117.606 44.3293 115.668 44.494 113.363 44.494C111.387 44.494 109.588 44.19 107.967 43.582C106.371 42.974 105.003 42.0873 103.863 40.922C102.723 39.7567 101.836 38.3253 101.203 36.628C100.595 34.9307 100.291 32.9927 100.291 30.814C100.291 28.61 100.633 26.6593 101.317 24.962C102.001 23.2647 102.938 21.8333 104.129 20.668C105.319 19.4773 106.713 18.578 108.309 17.97C109.93 17.362 111.653 17.058 113.477 17.058C114.718 17.058 115.833 17.1467 116.821 17.324C117.834 17.476 118.695 17.666 119.405 17.894C120.139 18.0967 120.735 18.312 121.191 18.54C121.672 18.768 122.014 18.9453 122.217 19.072L120.507 23.822C119.696 23.3913 118.759 23.024 117.695 22.72C116.656 22.3907 115.516 22.226 114.275 22.226ZM135.826 17.362C139.778 17.362 142.806 18.0713 144.908 19.49C147.011 20.8833 148.062 23.062 148.062 26.026C148.062 27.8753 147.632 29.3827 146.77 30.548C145.934 31.688 144.718 32.5873 143.122 33.246C143.654 33.9047 144.212 34.6647 144.794 35.526C145.377 36.362 145.947 37.2487 146.504 38.186C147.087 39.098 147.644 40.0607 148.176 41.074C148.708 42.062 149.202 43.0373 149.658 44H143.008C142.527 43.1387 142.033 42.2647 141.526 41.378C141.045 40.4913 140.538 39.63 140.006 38.794C139.5 37.958 138.993 37.1727 138.486 36.438C137.98 35.678 137.473 34.994 136.966 34.386H134.04V44H128.112V18.046C129.404 17.7927 130.734 17.6153 132.102 17.514C133.496 17.4127 134.737 17.362 135.826 17.362ZM136.168 22.416C135.738 22.416 135.345 22.4287 134.99 22.454C134.661 22.4793 134.344 22.5047 134.04 22.53V29.674H135.712C137.942 29.674 139.538 29.3953 140.5 28.838C141.463 28.2807 141.944 27.3307 141.944 25.988C141.944 24.696 141.45 23.784 140.462 23.252C139.5 22.6947 138.068 22.416 136.168 22.416ZM157.768 30.814C157.768 32.106 157.92 33.2713 158.224 34.31C158.553 35.3487 159.009 36.248 159.592 37.008C160.2 37.7427 160.935 38.3127 161.796 38.718C162.657 39.1233 163.645 39.326 164.76 39.326C165.849 39.326 166.825 39.1233 167.686 38.718C168.573 38.3127 169.307 37.7427 169.89 37.008C170.498 36.248 170.954 35.3487 171.258 34.31C171.587 33.2713 171.752 32.106 171.752 30.814C171.752 29.522 171.587 28.3567 171.258 27.318C170.954 26.254 170.498 25.3547 169.89 24.62C169.307 23.86 168.573 23.2773 167.686 22.872C166.825 22.4667 165.849 22.264 164.76 22.264C163.645 22.264 162.657 22.4793 161.796 22.91C160.935 23.3153 160.2 23.898 159.592 24.658C159.009 25.3927 158.553 26.292 158.224 27.356C157.92 28.3947 157.768 29.5473 157.768 30.814ZM177.87 30.814C177.87 33.0687 177.528 35.0573 176.844 36.78C176.185 38.4773 175.273 39.9087 174.108 41.074C172.943 42.214 171.549 43.0753 169.928 43.658C168.332 44.2407 166.609 44.532 164.76 44.532C162.961 44.532 161.264 44.2407 159.668 43.658C158.072 43.0753 156.679 42.214 155.488 41.074C154.297 39.9087 153.36 38.4773 152.676 36.78C151.992 35.0573 151.65 33.0687 151.65 30.814C151.65 28.5593 152.005 26.5833 152.714 24.886C153.423 23.1633 154.373 21.7193 155.564 20.554C156.78 19.3887 158.173 18.5147 159.744 17.932C161.34 17.3493 163.012 17.058 164.76 17.058C166.559 17.058 168.256 17.3493 169.852 17.932C171.448 18.5147 172.841 19.3887 174.032 20.554C175.223 21.7193 176.16 23.1633 176.844 24.886C177.528 26.5833 177.87 28.5593 177.87 30.814ZM200.11 20.478C200.414 21.5167 200.744 22.6947 201.098 24.012C201.478 25.304 201.871 26.6467 202.276 28.04C202.707 29.4333 203.138 30.8267 203.568 32.22C203.999 33.6133 204.417 34.9053 204.822 36.096C205.152 34.804 205.481 33.398 205.81 31.878C206.165 30.358 206.494 28.7873 206.798 27.166C207.102 25.5447 207.394 23.936 207.672 22.34C207.976 20.7187 208.255 19.1607 208.508 17.666H214.664C213.778 22.074 212.752 26.5453 211.586 31.08C210.446 35.6147 209.205 39.9213 207.862 44H202.428C201.542 41.568 200.68 39.022 199.844 36.362C199.008 33.6767 198.185 30.9913 197.374 28.306C196.564 30.9913 195.753 33.6767 194.942 36.362C194.132 39.022 193.283 41.568 192.396 44H186.962C185.62 39.9213 184.366 35.6147 183.2 31.08C182.06 26.5453 181.047 22.074 180.16 17.666H186.582C186.836 19.1607 187.114 20.7187 187.418 22.34C187.722 23.936 188.039 25.5447 188.368 27.166C188.698 28.7873 189.027 30.358 189.356 31.878C189.711 33.398 190.066 34.804 190.42 36.096C190.876 34.8547 191.32 33.5373 191.75 32.144C192.181 30.7507 192.599 29.3573 193.004 27.964C193.41 26.5707 193.777 25.228 194.106 23.936C194.461 22.644 194.778 21.4913 195.056 20.478H200.11Z" fill="#1BD688"/>
</svg>
