<svg width="215" height="63" viewBox="0 0 215 63" fill="none" xmlns="http://www.w3.org/2000/svg">
<rect width="215" height="63" rx="15" fill="#88FFCD"/>
<path d="M47.04 40V23.2H54.48C56.416 23.2 57.816 23.68 58.68 24.64C59.56 25.6 60 26.824 60 28.312C60 29.352 59.704 30.328 59.112 31.24C58.52 32.152 57.664 32.776 56.544 33.112L59.904 40H56.664L53.424 33.424H49.92V40H47.04ZM49.92 30.688H54.528C55.392 30.688 56.024 30.464 56.424 30.016C56.824 29.568 57.024 29 57.024 28.312C57.024 27.64 56.832 27.08 56.448 26.632C56.064 26.168 55.424 25.936 54.528 25.936H49.92V30.688ZM67.614 40.288C65.87 40.288 64.486 39.72 63.462 38.584C62.454 37.432 61.95 35.856 61.95 33.856C61.95 31.872 62.462 30.312 63.486 29.176C64.51 28.024 65.886 27.448 67.614 27.448C69.182 27.448 70.462 27.936 71.454 28.912C72.462 29.888 72.966 31.32 72.966 33.208C72.966 33.864 72.934 34.44 72.87 34.936H64.734C64.782 35.8 65.078 36.496 65.622 37.024C66.182 37.552 66.846 37.816 67.614 37.816C68.702 37.816 69.566 37.392 70.206 36.544L71.982 38.368C70.91 39.648 69.454 40.288 67.614 40.288ZM64.758 32.608H70.182C70.118 31.728 69.846 31.064 69.366 30.616C68.886 30.152 68.302 29.92 67.614 29.92C66.814 29.92 66.15 30.144 65.622 30.592C65.11 31.024 64.822 31.696 64.758 32.608ZM82.8231 40V39.016C82.0071 39.864 80.9191 40.288 79.5591 40.288C78.2471 40.288 77.1751 39.936 76.3431 39.232C75.5271 38.512 75.1191 37.504 75.1191 36.208C75.1191 34.88 75.5831 33.872 76.5111 33.184C77.4551 32.496 78.5911 32.152 79.9191 32.152C81.0871 32.152 82.0551 32.368 82.8231 32.8V32.152C82.8231 31.368 82.6231 30.8 82.2231 30.448C81.8391 30.096 81.2391 29.92 80.4231 29.92C79.0951 29.92 77.8791 30.304 76.7751 31.072L75.9111 28.792C77.2391 27.896 78.8391 27.448 80.7111 27.448C81.3511 27.448 81.9111 27.504 82.3911 27.616C82.8871 27.712 83.3911 27.912 83.9031 28.216C84.4311 28.52 84.8391 29 85.1271 29.656C85.4151 30.312 85.5591 31.128 85.5591 32.104V40H82.8231ZM80.0871 37.816C81.1591 37.816 82.0711 37.424 82.8231 36.64V35.056C82.1191 34.72 81.3031 34.552 80.3751 34.552C79.6231 34.552 79.0151 34.688 78.5511 34.96C78.0871 35.232 77.8551 35.648 77.8551 36.208C77.8551 36.704 78.0471 37.096 78.4311 37.384C78.8151 37.672 79.3671 37.816 80.0871 37.816ZM93.4052 40.288C91.8372 40.288 90.5972 39.72 89.6852 38.584C88.7732 37.448 88.3172 35.872 88.3172 33.856C88.3172 31.888 88.7892 30.328 89.7332 29.176C90.6772 28.024 91.9012 27.448 93.4052 27.448C94.5892 27.448 95.5092 27.832 96.1652 28.6V23.944L98.9732 22.672V40H96.1652V39.112C95.5572 39.896 94.6372 40.288 93.4052 40.288ZM93.8372 37.6C94.8772 37.6 95.6532 37.208 96.1652 36.424V31.288C95.6372 30.504 94.8612 30.112 93.8372 30.112C92.9732 30.112 92.3012 30.44 91.8212 31.096C91.3572 31.736 91.1252 32.656 91.1252 33.856C91.1252 34.992 91.3652 35.904 91.8452 36.592C92.3252 37.264 92.9892 37.6 93.8372 37.6ZM123.992 40H121.112V31.072C121.112 30.336 121.144 29.664 121.208 29.056C121.016 29.632 120.76 30.32 120.44 31.12L116.36 40.288L112.28 31.072C111.992 30.432 111.728 29.76 111.488 29.056C111.552 29.664 111.584 30.336 111.584 31.072V40H108.704V23.2H111.608L115.928 33.064C116.104 33.512 116.256 33.928 116.384 34.312C116.512 33.928 116.664 33.512 116.84 33.064L121.184 23.2H123.992V40ZM132.839 40.288C131.111 40.288 129.743 39.72 128.735 38.584C127.727 37.448 127.223 35.88 127.223 33.88C127.223 31.88 127.727 30.312 128.735 29.176C129.743 28.024 131.111 27.448 132.839 27.448C134.567 27.448 135.935 28.024 136.943 29.176C137.967 30.312 138.479 31.88 138.479 33.88C138.479 35.88 137.975 37.448 136.967 38.584C135.959 39.72 134.583 40.288 132.839 40.288ZM132.839 37.6C133.719 37.6 134.407 37.272 134.903 36.616C135.415 35.96 135.671 35.048 135.671 33.88C135.671 32.712 135.415 31.792 134.903 31.12C134.407 30.448 133.719 30.112 132.839 30.112C131.991 30.112 131.311 30.456 130.799 31.144C130.287 31.816 130.031 32.728 130.031 33.88C130.031 35.032 130.279 35.944 130.775 36.616C131.287 37.272 131.975 37.6 132.839 37.6ZM141.488 40V27.736H144.296V29.008C144.792 27.968 145.632 27.448 146.816 27.448C147.68 27.448 148.44 27.728 149.096 28.288L148.688 30.856C148.08 30.424 147.384 30.208 146.6 30.208C145.96 30.208 145.416 30.432 144.968 30.88C144.52 31.328 144.296 32.08 144.296 33.136V40H141.488ZM156.161 40.288C154.417 40.288 153.033 39.72 152.009 38.584C151.001 37.432 150.497 35.856 150.497 33.856C150.497 31.872 151.009 30.312 152.033 29.176C153.057 28.024 154.433 27.448 156.161 27.448C157.729 27.448 159.009 27.936 160.001 28.912C161.009 29.888 161.513 31.32 161.513 33.208C161.513 33.864 161.481 34.44 161.417 34.936H153.281C153.329 35.8 153.625 36.496 154.169 37.024C154.729 37.552 155.393 37.816 156.161 37.816C157.249 37.816 158.113 37.392 158.753 36.544L160.529 38.368C159.457 39.648 158.001 40.288 156.161 40.288ZM153.305 32.608H158.729C158.665 31.728 158.393 31.064 157.913 30.616C157.433 30.152 156.849 29.92 156.161 29.92C155.361 29.92 154.697 30.144 154.169 30.592C153.657 31.024 153.369 31.696 153.305 32.608Z" fill="white"/>
</svg>
