<svg width="1280" height="1279" viewBox="0 0 1280 1279" fill="none" xmlns="http://www.w3.org/2000/svg">
<path d="M649.5 1.09997C579.7 1.59997 514.2 2.29997 504 2.59997L485.5 3.29997L493.5 5.99997C520.6 15.3 543.2 28.8 567.4 49.9C589.3 69 611.8 97.3 632.9 132.3C643.2 149.4 754.2 353.9 753.6 354.8C753.4 355.2 735.4 367 713.6 381L674 406.5L701.7 407.1C717 407.5 773.8 408 828 408.4C882.2 408.7 935.3 409.3 946 409.6L965.5 410.1L1040.8 285.8C1082.2 217.4 1117.2 159.5 1118.7 157.1L1121.3 152.7L1109.9 158.7C1103.6 162.1 1087.9 170.3 1075 177C1062.1 183.7 1046.5 191.9 1040.4 195.1L1029.4 200.9L997.8 142.7C980.4 110.7 965.1 82.2 963.7 79.4C959.4 70.9 949.6 56.9 942 48.7C921.3 26.3 894 10.3 863 2.39997C854.5 0.199969 818 -3.0525e-05 649.5 1.09997Z" fill="#39FFAC"/>
<path d="M428.5 13.7C408 16.3 385.7 26.9 369.3 41.7C364.2 46.2999 218.4 270.8 219.7 272C220.1 272.5 282.1 309.3 357.4 353.9C437.1 401.1 494.7 434.7 495.2 434.2C495.7 433.7 528.9 379.8 569.1 314.4L642 195.6L634.5 181.4C585.3 87.3999 518.6 24.4 458 14.5C449.3 13.1 435.8 12.7 428.5 13.7Z" fill="#39FFAC"/>
<path d="M1017.9 498.6C943.4 544.1 881.9 581.8 881.1 582.6C879.9 583.7 890 602.9 946.3 707.2L1012.9 830.5H1044.7C1068.7 830.4 1080 830 1091 828.6C1135.8 823.2 1169.2 814 1200.5 798.5C1219.1 789.3 1232 780.6 1244.2 769.1C1268.9 745.9 1281.6 714.8 1279.7 682C1278.4 660.6 1281.7 668.1 1220.5 547.5C1189.8 487 1162.2 432.7 1159 426.8L1153.4 416L1017.9 498.6Z" fill="#39FFAC"/>
<path d="M169 420.2C111.5 420.6 51.8 421.3 36.2 421.8L8.00004 422.5L50 455.3C73.1 473.4 92 488.6 92 489.1C92 489.7 72.9 526.7 49.5 571.4C26.2 616.1 6.00004 656 4.60004 660.1C-8.19996 698.6 7.70004 742.8 48.1 780.4C83.7 813.5 121.4 827.2 190.7 832C207.1 833.1 257.3 833.6 258.8 832.6C259.3 832.3 285.1 790.7 316 740.1L372.2 648.2L379.9 652.3C384.1 654.6 403 664.8 422 675.1C441 685.4 456.6 693.7 456.8 693.5C457 693.3 423.9 631.6 383.3 556.3L309.4 419.5L291.5 419.4C281.6 419.4 226.5 419.7 169 420.2Z" fill="#39FFAC"/>
<path d="M744.7 886.7L672.9 1016.2L696.7 1059.8C709.9 1083.9 742.2 1143 768.5 1191.2L816.5 1278.9L817.1 1271.7C817.5 1267.8 818.3 1246.7 818.9 1225C819.5 1203.3 820.3 1182.9 820.6 1179.7L821.2 1173.9L898.4 1174.1C966.6 1174.2 976.5 1174 983.8 1172.6C1002.9 1168.8 1023.9 1159.9 1041.5 1148.3C1054.9 1139.4 1073.5 1120.7 1080.6 1109C1084.5 1102.7 1242.4 807.8 1252.4 788.2C1253.9 785.3 1252.5 786.2 1243.8 793.7C1205 827.2 1165.1 843.5 1101.5 851.6C1090.1 853.1 1072.5 853.4 955.3 853.7L822 854.1V849.8C822 842.2 818 768.7 817.2 762.8L816.5 757.1L744.7 886.7Z" fill="#39FFAC"/>
<path d="M21 781.3C21 781.6 56.2 846.8 99.1 926.2C142.1 1005.5 183.2 1081.5 190.4 1094.9C203.2 1118.8 203.7 1119.6 213 1129C233.3 1149.5 262.2 1163.2 299.1 1169.9C328.7 1175.3 327.9 1175.3 456.2 1175.7L576 1176.1V1015.2V854.3L513.8 853.6C479.5 853.3 404.7 852.7 347.5 852.4C159.6 851.3 167.6 851.4 155 849.6C104 842 62 821.9 29.6 789.4C24.9 784.6 21 781 21 781.3Z" fill="#39FFAC"/>
</svg>
