<svg width="35" height="40" viewBox="0 0 35 40" fill="none" xmlns="http://www.w3.org/2000/svg">
<path d="M34.8948 37.1248L23.533 24.1399C25.2961 21.5349 26.2499 18.3499 26.2499 14.9999C26.2499 10.99 24.8805 7.22997 22.4043 4.39498C19.928 1.55999 16.6293 0 13.1249 0C9.62058 0 6.32185 1.56499 3.84561 4.39498C1.36499 7.22497 0 10.99 0 14.9999C0 19.0049 1.36937 22.7749 3.84561 25.6049C6.32185 28.4399 9.61621 29.9999 13.1249 29.9999C16.0562 29.9999 18.8387 28.9099 21.118 26.8999L32.4799 39.8798C32.5132 39.9179 32.5527 39.9481 32.5963 39.9688C32.6398 39.9894 32.6865 40 32.7336 40C32.7807 40 32.8274 39.9894 32.8709 39.9688C32.9145 39.9481 32.954 39.9179 32.9874 39.8798L34.8948 37.7048C34.9282 37.6668 34.9546 37.6216 34.9727 37.5718C34.9907 37.522 35 37.4687 35 37.4148C35 37.361 34.9907 37.3076 34.9727 37.2579C34.9546 37.2081 34.9282 37.1629 34.8948 37.1248ZM20.0549 22.9199C18.1999 25.0349 15.7412 26.1999 13.1249 26.1999C10.5087 26.1999 8.04996 25.0349 6.19497 22.9199C4.34436 20.7999 3.32499 17.9899 3.32499 14.9999C3.32499 12.0099 4.34436 9.19496 6.19497 7.07997C8.04996 4.96498 10.5087 3.79998 13.1249 3.79998C15.7412 3.79998 18.2043 4.95998 20.0549 7.07997C21.9055 9.19996 22.9249 12.0099 22.9249 14.9999C22.9249 17.9899 21.9055 20.8049 20.0549 22.9199Z" fill="black" fill-opacity="0.4"/>
</svg>
