<svg width="160" height="160" viewBox="0 0 160 160" fill="none" xmlns="http://www.w3.org/2000/svg">
<path d="M124.736 44.6909C121.426 46.4483 117.825 47.7131 114.115 48.2057C117.967 45.389 120.851 40.9391 122.227 35.6909C118.612 38.3375 114.653 40.1933 110.524 41.1761C108.798 38.9051 106.711 37.096 104.392 35.8614C102.074 34.6268 99.5734 33.9932 97.0472 34.0001C86.826 34.0001 78.6059 44.1983 78.6059 56.7131C78.6059 58.4705 78.7789 60.2279 79.0601 61.9187C63.7555 60.9335 50.1057 51.9335 41.0311 38.1539C39.3776 41.6303 38.5111 45.5886 38.5217 49.6169C38.5217 57.4986 41.7774 64.4483 46.7419 68.5355C43.8162 68.3937 40.9591 67.4039 38.4028 65.6465V65.9261C38.4028 76.963 44.741 86.1095 53.1883 88.213C51.6022 88.7202 49.9706 88.9796 48.3319 88.9852C47.1313 88.9852 45.9956 88.8388 44.8491 88.6391C47.1854 97.6391 53.9886 104.176 62.0898 104.389C55.7516 110.5 47.8127 114.095 39.1923 114.095C37.6457 114.095 36.2179 114.028 34.7361 113.815C42.913 120.272 52.615 124 63.0633 124C96.9823 124 115.543 89.4113 115.543 59.3891C115.543 58.4039 115.543 57.4187 115.488 56.4335C119.079 53.1983 122.227 49.1909 124.736 44.6909Z" fill="#88FFCD"/>
<circle cx="80" cy="80" r="78" stroke="#88FFCD" stroke-width="4"/>
</svg>
