<svg width="90" height="90" viewBox="0 0 90 90" fill="none" xmlns="http://www.w3.org/2000/svg">
<g clip-path="url(#clip0)">
<path d="M61.875 16.875C61.875 7.55508 54.3199 0 45 0C35.6801 0 28.125 7.55508 28.125 16.875C28.125 26.1949 35.6801 33.75 45 33.75C54.3199 33.75 61.875 26.1949 61.875 16.875ZM41.0607 42.3809C30.6316 35.9965 13.7391 34.2422 5.23828 33.7588C2.38184 33.5971 0 35.7732 0 38.5207V77.6848C0 80.2037 2.0373 82.3043 4.65645 82.4396C12.3311 82.8422 27.8578 84.317 38.5893 89.7223C40.2363 90.552 42.1893 89.4217 42.1893 87.6357V44.3953C42.1875 43.5744 41.7814 42.8221 41.0607 42.3809ZM84.7617 33.7588C76.2627 34.2404 59.3684 35.9965 48.941 42.3809C48.2203 42.8221 47.8143 43.6043 47.8143 44.4252V87.6305C47.8143 89.4217 49.7725 90.5537 51.4248 89.7223C62.1545 84.3223 77.6725 82.8475 85.3453 82.4449C87.9645 82.3078 90.0018 80.2072 90.0018 77.6883V38.5207C90 35.7732 87.6182 33.5971 84.7617 33.7588V33.7588Z" fill="#1BD688"/>
</g>
<defs>
<clipPath id="clip0">
<rect width="90" height="90" fill="white"/>
</clipPath>
</defs>
</svg>
