<svg width="17" height="16" viewBox="0 0 17 16" fill="none" xmlns="http://www.w3.org/2000/svg">
<path d="M16.842 1.9006C16.2536 2.21303 15.6133 2.43788 14.9538 2.52545C15.6386 2.02471 16.1513 1.23362 16.3959 0.300601C15.7534 0.771108 15.0495 1.10104 14.3154 1.27575C14.0086 0.872024 13.6376 0.5504 13.2254 0.330915C12.8132 0.11143 12.3687 -0.00121132 11.9196 9.82343e-06C10.1025 9.82343e-06 8.6411 1.81303 8.6411 4.03788C8.6411 4.3503 8.67187 4.66273 8.72186 4.96332C6.00104 4.78817 3.5744 3.18817 1.96114 0.738471C1.66718 1.3565 1.51314 2.06019 1.51504 2.77634C1.51504 4.17752 2.09381 5.41302 2.9764 6.13965C2.45628 6.11444 1.94834 5.93846 1.49389 5.62604V5.67575C1.49389 7.63787 2.62067 9.26391 4.12242 9.63787C3.84045 9.72803 3.55038 9.77415 3.25906 9.77515C3.04562 9.77515 2.84372 9.74912 2.6399 9.71361C3.05524 11.3136 4.26471 12.4757 5.70492 12.5136C4.57813 13.6 3.16676 14.2391 1.63425 14.2391C1.35929 14.2391 1.10547 14.2272 0.842041 14.1894C2.29571 15.3373 4.02051 16 5.87797 16C11.908 16 15.2076 9.85089 15.2076 4.51362C15.2076 4.33847 15.2076 4.16332 15.198 3.98817C15.8364 3.41303 16.3959 2.7006 16.842 1.9006Z" fill="#88FFCD"/>
</svg>
