<svg width="90" height="80" viewBox="0 0 90 80" fill="none" xmlns="http://www.w3.org/2000/svg">
<path d="M78.862 50H33.0581L34.0808 55H76.0211C78.4275 55 80.2111 57.2345 79.6778 59.5811L78.8158 63.3742C81.7362 64.7919 83.75 67.7856 83.75 71.25C83.75 76.1253 79.7627 80.0694 74.8712 79.9991C70.2114 79.932 66.3791 76.1505 66.2533 71.4917C66.1845 68.9469 67.2041 66.6403 68.8788 64.9998H36.1212C37.7427 66.5883 38.75 68.8009 38.75 71.25C38.75 76.2208 34.605 80.2236 29.5828 79.9903C25.1234 79.7833 21.4967 76.1802 21.2623 71.722C21.0814 68.2792 22.893 65.2447 25.6453 63.6617L14.6692 10H3.75C1.67891 10 0 8.32109 0 6.25V3.75C0 1.67891 1.67891 0 3.75 0H19.7702C21.5516 0 23.087 1.25328 23.4441 2.99844L24.8762 10H86.2484C88.6548 10 90.4384 12.2345 89.9052 14.5811L82.5187 47.0811C82.1308 48.7884 80.613 50 78.862 50ZM63.75 26.25H56.25V20C56.25 18.6192 55.1308 17.5 53.75 17.5H51.25C49.8692 17.5 48.75 18.6192 48.75 20V26.25H41.25C39.8692 26.25 38.75 27.3692 38.75 28.75V31.25C38.75 32.6308 39.8692 33.75 41.25 33.75H48.75V40C48.75 41.3808 49.8692 42.5 51.25 42.5H53.75C55.1308 42.5 56.25 41.3808 56.25 40V33.75H63.75C65.1308 33.75 66.25 32.6308 66.25 31.25V28.75C66.25 27.3692 65.1308 26.25 63.75 26.25Z" fill="#1BD688"/>
</svg>
