<svg width="90" height="80" viewBox="0 0 90 80" fill="none" xmlns="http://www.w3.org/2000/svg">
<path d="M45 0.625C20.148 0.625 0 16.9938 0 37.1875C0 45.8992 3.76348 53.8885 10.023 60.1691C7.81523 69.0127 0.474609 76.9088 0.386719 77.002C0.197443 77.2013 0.0707834 77.4518 0.0224211 77.7224C-0.0259413 77.993 0.00611669 78.2718 0.114626 78.5244C0.223136 78.777 0.403333 78.9922 0.632909 79.1433C0.862486 79.2945 1.13136 79.3751 1.40625 79.375C13.0535 79.375 21.7951 73.7939 26.1211 70.3434C31.8674 72.5072 38.2482 73.75 45 73.75C69.852 73.75 90 57.3812 90 37.1875C90 16.9938 69.852 0.625 45 0.625ZM49.2188 53.7883V56.875C49.2188 58.4289 47.9602 59.6875 46.4062 59.6875H43.5938C42.0398 59.6875 40.7812 58.4289 40.7812 56.875V53.7584C38.7738 53.5211 36.8648 52.8461 35.1949 51.7439C34.1016 51.0215 33.9961 49.4395 34.9225 48.5131L38.0021 45.4334C38.6596 44.776 39.6387 44.6881 40.4824 45.0766C41.0414 45.3332 41.6531 45.4668 42.2859 45.4668H48.048C48.8672 45.4668 49.5316 44.8023 49.5316 43.9867C49.5316 43.3275 49.0887 42.7422 48.4559 42.5611L39.6545 40.0475C35.7434 38.9312 32.6215 35.7039 32.1117 31.668C31.3998 26.0307 35.4568 21.2213 40.7812 20.585V17.5C40.7812 15.9461 42.0398 14.6875 43.5938 14.6875H46.4062C47.9602 14.6875 49.2188 15.9461 49.2188 17.5V20.6166C51.2262 20.8539 53.1352 21.5289 54.8051 22.6311C55.8984 23.3535 56.0039 24.9355 55.0775 25.8619L51.9979 28.9416C51.3404 29.599 50.3613 29.6869 49.5176 29.2984C48.9516 29.0397 48.3364 28.9065 47.7141 28.9082H41.952C41.1328 28.9082 40.4684 29.5727 40.4684 30.3883C40.4684 31.0475 40.9113 31.6328 41.5441 31.8139L50.3455 34.3275C54.2566 35.4455 57.3785 38.6711 57.8883 42.707C58.6002 48.3426 54.5432 53.152 49.2188 53.7883V53.7883Z" fill="#1BD688"/>
</svg>
