<svg width="17" height="16" viewBox="0 0 17 16" fill="none" xmlns="http://www.w3.org/2000/svg">
<path d="M3.10021 0C1.48183 0 0.178711 1.30312 0.178711 2.9215V13.0785C0.178711 14.6969 1.48183 16 3.10021 16H8.60522V9.74499H6.95122V7.49299H8.60522V5.569C8.60522 4.0574 9.58249 2.6695 11.8337 2.6695C12.7452 2.6695 13.4192 2.757 13.4192 2.757L13.3662 4.86001C13.3662 4.86001 12.6788 4.85351 11.9287 4.85351C11.1169 4.85351 10.9867 5.22756 10.9867 5.84852V7.49301H13.4307L13.3242 9.745H10.9867V16H13.2572C14.8756 16 16.1787 14.6969 16.1787 13.0785V2.92151C16.1787 1.30313 14.8756 1.6e-05 13.2572 1.6e-05H3.1002L3.10021 0Z" fill="#88FFCD"/>
</svg>
